<svg xmlns="http://www.w3.org/2000/svg" xmlns:xlink="http://www.w3.org/1999/xlink" width="100" zoomAndPan="magnify" viewBox="0 0 75 74.999997" height="100" preserveAspectRatio="xMidYMid meet" version="1.0"><defs><g/><clipPath id="d25462192a"><path d="M 4.527344 4.527344 L 70.472656 4.527344 L 70.472656 70.472656 L 4.527344 70.472656 Z M 4.527344 4.527344 " clip-rule="nonzero"/></clipPath><clipPath id="886ee458e0"><path d="M 37.5 4.527344 C 19.289062 4.527344 4.527344 19.289062 4.527344 37.5 C 4.527344 55.710938 19.289062 70.472656 37.5 70.472656 C 55.710938 70.472656 70.472656 55.710938 70.472656 37.5 C 70.472656 19.289062 55.710938 4.527344 37.5 4.527344 Z M 37.5 4.527344 " clip-rule="nonzero"/></clipPath><clipPath id="b0e713334e"><path d="M 4.527344 4.527344 L 70.46875 4.527344 L 70.46875 70.46875 L 4.527344 70.46875 Z M 4.527344 4.527344 " clip-rule="nonzero"/></clipPath><clipPath id="48b25ae389"><path d="M 37.5 4.527344 C 19.289062 4.527344 4.527344 19.289062 4.527344 37.5 C 4.527344 55.707031 19.289062 70.46875 37.5 70.46875 C 55.707031 70.46875 70.46875 55.707031 70.46875 37.5 C 70.46875 19.289062 55.707031 4.527344 37.5 4.527344 Z M 37.5 4.527344 " clip-rule="nonzero"/></clipPath></defs><g clip-path="url(#d25462192a)"><g clip-path="url(#886ee458e0)"><path fill="#ffffff" d="M 4.527344 4.527344 L 70.472656 4.527344 L 70.472656 70.472656 L 4.527344 70.472656 Z M 4.527344 4.527344 " fill-opacity="1" fill-rule="nonzero"/></g></g><g clip-path="url(#b0e713334e)"><g clip-path="url(#48b25ae389)"><path stroke-linecap="butt" transform="matrix(0.75, 0, 0, 0.75, 4.527696, 4.527693)" fill="none" stroke-linejoin="miter" d="M 43.963076 -0.00046624 C 19.681824 -0.00046624 -0.000469574 19.681827 -0.000469574 43.963079 C -0.000469574 68.239123 19.681824 87.921416 43.963076 87.921416 C 68.239119 87.921416 87.921413 68.239123 87.921413 43.963079 C 87.921413 19.681827 68.239119 -0.00046624 43.963076 -0.00046624 Z M 43.963076 -0.00046624 " stroke="#5e17eb" stroke-width="2" stroke-opacity="1" stroke-miterlimit="4"/></g></g><g fill="#5e17eb" fill-opacity="1"><g transform="translate(20.43548, 60.330471)"><g><path d="M 37.0625 -40 C 37.5625 -39 37.875 -37.867188 38 -36.609375 C 38.125 -35.359375 38.1875 -34.210938 38.1875 -33.171875 C 38.1875 -29.671875 37.773438 -26.28125 36.953125 -23 C 36.140625 -19.726562 35.003906 -16.691406 33.546875 -13.890625 C 32.085938 -11.097656 30.40625 -8.664062 28.5 -6.59375 C 26.601562 -4.53125 24.5625 -2.914062 22.375 -1.75 C 20.1875 -0.582031 17.96875 0 15.71875 0 C 12.75 0 10.328125 -1.019531 8.453125 -3.0625 C 6.578125 -5.113281 5.640625 -8.160156 5.640625 -12.203125 L 5.640625 -39.6875 C 5.640625 -40.726562 5.269531 -41.613281 4.53125 -42.34375 C 3.800781 -43.070312 2.914062 -43.4375 1.875 -43.4375 L 1.875 -43.8125 L 15.515625 -43.8125 C 16.273438 -43.8125 16.65625 -43.414062 16.65625 -42.625 L 16.65625 -4.1875 C 16.65625 -3.394531 16.957031 -2.695312 17.5625 -2.09375 C 18.164062 -1.488281 18.863281 -1.1875 19.65625 -1.1875 C 19.988281 -1.1875 20.363281 -1.269531 20.78125 -1.4375 C 24.539062 -2.976562 27.898438 -5.898438 30.859375 -10.203125 C 32.441406 -12.492188 33.773438 -15.003906 34.859375 -17.734375 C 35.941406 -20.472656 36.71875 -23.304688 37.1875 -26.234375 C 37.4375 -27.648438 37.414062 -28.804688 37.125 -29.703125 C 36.832031 -30.597656 36.097656 -31.046875 34.921875 -31.046875 C 34.210938 -31.046875 33.597656 -30.941406 33.078125 -30.734375 C 32.554688 -30.523438 31.878906 -30.421875 31.046875 -30.421875 C 29.210938 -30.421875 27.632812 -31.078125 26.3125 -32.390625 C 25 -33.703125 24.34375 -35.28125 24.34375 -37.125 C 24.34375 -38.957031 25 -40.53125 26.3125 -41.84375 C 27.632812 -43.15625 29.210938 -43.8125 31.046875 -43.8125 C 32.378906 -43.8125 33.578125 -43.457031 34.640625 -42.75 C 35.703125 -42.039062 36.507812 -41.125 37.0625 -40 Z M 37.0625 -40 "/></g></g></g><g fill="#ffffff" fill-opacity="1"><g transform="translate(27.953612, 41.408116)"><g><path d="M 6.1875 -6.625 C 6.1875 -6.894531 6.097656 -7.144531 5.921875 -7.375 C 5.753906 -7.601562 5.535156 -7.726562 5.265625 -7.75 L 8.609375 -7.75 C 8.410156 -7.71875 8.203125 -7.648438 7.984375 -7.546875 C 7.796875 -7.460938 7.570312 -7.335938 7.3125 -7.171875 C 7.050781 -7.003906 6.785156 -6.785156 6.515625 -6.515625 L 5.875 -5.890625 C 6.082031 -6.078125 6.1875 -6.320312 6.1875 -6.625 Z M 7.859375 -0.4375 C 7.960938 -0.320312 8.078125 -0.21875 8.203125 -0.125 C 8.328125 -0.0390625 8.460938 0 8.609375 0 L 5.75 0 C 5.625 0 5.503906 -0.0390625 5.390625 -0.125 C 5.285156 -0.21875 5.175781 -0.382812 5.0625 -0.625 C 4.925781 -0.914062 4.785156 -1.257812 4.640625 -1.65625 C 4.503906 -2.050781 4.363281 -2.441406 4.21875 -2.828125 C 4.082031 -3.210938 3.941406 -3.5625 3.796875 -3.875 C 3.660156 -4.1875 3.53125 -4.394531 3.40625 -4.5 L 3.40625 -0.875 C 3.40625 -0.675781 3.46875 -0.488281 3.59375 -0.3125 C 3.71875 -0.132812 3.875 -0.03125 4.0625 0 L 0.390625 0 C 0.566406 -0.03125 0.71875 -0.132812 0.84375 -0.3125 C 0.976562 -0.488281 1.046875 -0.675781 1.046875 -0.875 L 1.046875 -9.78125 C 1.046875 -9.96875 0.976562 -10.148438 0.84375 -10.328125 C 0.71875 -10.515625 0.566406 -10.625 0.390625 -10.65625 L 3.09375 -11.046875 L 3.140625 -11.046875 C 3.222656 -11.046875 3.285156 -11.019531 3.328125 -10.96875 C 3.378906 -10.914062 3.40625 -10.847656 3.40625 -10.765625 L 3.40625 -4.5 C 3.539062 -4.5 3.695312 -4.523438 3.875 -4.578125 C 4.050781 -4.640625 4.226562 -4.71875 4.40625 -4.8125 C 4.59375 -4.90625 4.769531 -5.007812 4.9375 -5.125 C 5.113281 -5.238281 5.273438 -5.359375 5.421875 -5.484375 C 5.546875 -5.398438 5.664062 -5.238281 5.78125 -5 C 5.90625 -4.769531 6.03125 -4.492188 6.15625 -4.171875 C 6.28125 -3.859375 6.40625 -3.519531 6.53125 -3.15625 C 6.664062 -2.800781 6.800781 -2.453125 6.9375 -2.109375 C 7.082031 -1.765625 7.226562 -1.441406 7.375 -1.140625 C 7.53125 -0.847656 7.691406 -0.613281 7.859375 -0.4375 Z M 7.859375 -0.4375 "/></g></g></g></svg>